<mxfile host="app.diagrams.net" modified="2024-05-27T16:27:46.418Z" agent="Mozilla/5.0 (Windows NT 10.0; Win64; x64) AppleWebKit/537.36 (KHTML, like Gecko) Chrome/123.0.0.0 Safari/537.36 OPR/109.0.0.0 (Edition std-1)" etag="pTNQ5o3_FRb78BlwKLs8" version="24.4.9" type="device">
  <diagram id="C5RBs43oDa-KdzZeNtuy" name="Page-1">
    <mxGraphModel dx="1849" dy="1051" grid="1" gridSize="10" guides="1" tooltips="1" connect="1" arrows="1" fold="1" page="1" pageScale="1" pageWidth="827" pageHeight="1169" math="0" shadow="0">
      <root>
        <mxCell id="WIyWlLk6GJQsqaUBKTNV-0" />
        <mxCell id="WIyWlLk6GJQsqaUBKTNV-1" parent="WIyWlLk6GJQsqaUBKTNV-0" />
        <mxCell id="r5VO6Hn0INopbe_nGajh-0" value="Mean-Variance-Optimierung" style="shape=umlFrame;whiteSpace=wrap;html=1;pointerEvents=0;recursiveResize=0;container=1;collapsible=0;width=160;" vertex="1" parent="WIyWlLk6GJQsqaUBKTNV-1">
          <mxGeometry x="90" y="30" width="690" height="440" as="geometry" />
        </mxCell>
        <mxCell id="r5VO6Hn0INopbe_nGajh-2" value="Eingabedaten:&lt;div&gt;predictions, historical_data und initial_capital&lt;/div&gt;" style="rounded=1;whiteSpace=wrap;html=1;fontSize=12;glass=0;strokeWidth=1;shadow=0;" vertex="1" parent="r5VO6Hn0INopbe_nGajh-0">
          <mxGeometry x="270" y="70" width="120" height="70" as="geometry" />
        </mxCell>
        <mxCell id="r5VO6Hn0INopbe_nGajh-1" value="" style="rounded=0;html=1;jettySize=auto;orthogonalLoop=1;fontSize=11;endArrow=block;endFill=0;endSize=8;strokeWidth=1;shadow=0;labelBackgroundColor=none;edgeStyle=orthogonalEdgeStyle;exitX=0;exitY=0.5;exitDx=0;exitDy=0;" edge="1" parent="r5VO6Hn0INopbe_nGajh-0" source="r5VO6Hn0INopbe_nGajh-2">
          <mxGeometry relative="1" as="geometry">
            <mxPoint x="170" y="135" as="sourcePoint" />
            <mxPoint x="220" y="105" as="targetPoint" />
          </mxGeometry>
        </mxCell>
        <mxCell id="r5VO6Hn0INopbe_nGajh-10" value="func allocate_portfolio" style="shape=umlFrame;whiteSpace=wrap;html=1;pointerEvents=0;recursiveResize=0;container=1;collapsible=0;width=150;height=15;" vertex="1" parent="r5VO6Hn0INopbe_nGajh-0">
          <mxGeometry x="30" y="50" width="190" height="360" as="geometry" />
        </mxCell>
        <mxCell id="r5VO6Hn0INopbe_nGajh-11" value="" style="rounded=0;html=1;jettySize=auto;orthogonalLoop=1;fontSize=11;endArrow=block;endFill=0;endSize=8;strokeWidth=1;shadow=0;labelBackgroundColor=none;edgeStyle=orthogonalEdgeStyle;" edge="1" parent="r5VO6Hn0INopbe_nGajh-10">
          <mxGeometry relative="1" as="geometry">
            <mxPoint x="190" y="55" as="sourcePoint" />
            <mxPoint x="160" y="54.71000000000001" as="targetPoint" />
          </mxGeometry>
        </mxCell>
        <mxCell id="r5VO6Hn0INopbe_nGajh-3" value="Vorhersagen werden gemittelt" style="rounded=1;whiteSpace=wrap;html=1;fontSize=12;glass=0;strokeWidth=1;shadow=0;" vertex="1" parent="r5VO6Hn0INopbe_nGajh-10">
          <mxGeometry x="40" y="35" width="120" height="40" as="geometry" />
        </mxCell>
        <mxCell id="r5VO6Hn0INopbe_nGajh-4" value="" style="rounded=0;html=1;jettySize=auto;orthogonalLoop=1;fontSize=11;endArrow=block;endFill=0;endSize=8;strokeWidth=1;shadow=0;labelBackgroundColor=none;edgeStyle=orthogonalEdgeStyle;" edge="1" parent="r5VO6Hn0INopbe_nGajh-10">
          <mxGeometry relative="1" as="geometry">
            <mxPoint x="100" y="75" as="sourcePoint" />
            <mxPoint x="100" y="125" as="targetPoint" />
          </mxGeometry>
        </mxCell>
        <mxCell id="r5VO6Hn0INopbe_nGajh-5" value="Kovarianz aus historical_data berechenen" style="rounded=1;whiteSpace=wrap;html=1;fontSize=12;glass=0;strokeWidth=1;shadow=0;" vertex="1" parent="r5VO6Hn0INopbe_nGajh-10">
          <mxGeometry x="40" y="125" width="120" height="40" as="geometry" />
        </mxCell>
        <mxCell id="r5VO6Hn0INopbe_nGajh-6" value="Optimale Gewichtung der Aktien bestimmen" style="rounded=1;whiteSpace=wrap;html=1;fontSize=12;glass=0;strokeWidth=1;shadow=0;" vertex="1" parent="r5VO6Hn0INopbe_nGajh-10">
          <mxGeometry x="40" y="215" width="120" height="40" as="geometry" />
        </mxCell>
        <mxCell id="r5VO6Hn0INopbe_nGajh-7" value="" style="rounded=0;html=1;jettySize=auto;orthogonalLoop=1;fontSize=11;endArrow=block;endFill=0;endSize=8;strokeWidth=1;shadow=0;labelBackgroundColor=none;edgeStyle=orthogonalEdgeStyle;" edge="1" parent="r5VO6Hn0INopbe_nGajh-10">
          <mxGeometry relative="1" as="geometry">
            <mxPoint x="99.71000000000001" y="165" as="sourcePoint" />
            <mxPoint x="99.71000000000001" y="215" as="targetPoint" />
          </mxGeometry>
        </mxCell>
        <mxCell id="r5VO6Hn0INopbe_nGajh-8" value="Portfoliogewichtung zurÃ¼ckgeben" style="rounded=1;whiteSpace=wrap;html=1;fontSize=12;glass=0;strokeWidth=1;shadow=0;" vertex="1" parent="r5VO6Hn0INopbe_nGajh-10">
          <mxGeometry x="40" y="305" width="120" height="40" as="geometry" />
        </mxCell>
        <mxCell id="r5VO6Hn0INopbe_nGajh-9" value="" style="rounded=0;html=1;jettySize=auto;orthogonalLoop=1;fontSize=11;endArrow=block;endFill=0;endSize=8;strokeWidth=1;shadow=0;labelBackgroundColor=none;edgeStyle=orthogonalEdgeStyle;" edge="1" parent="r5VO6Hn0INopbe_nGajh-10">
          <mxGeometry relative="1" as="geometry">
            <mxPoint x="99.71000000000001" y="255" as="sourcePoint" />
            <mxPoint x="99.71000000000001" y="305" as="targetPoint" />
          </mxGeometry>
        </mxCell>
        <mxCell id="r5VO6Hn0INopbe_nGajh-18" value="" style="rounded=0;html=1;jettySize=auto;orthogonalLoop=1;fontSize=11;endArrow=block;endFill=0;endSize=8;strokeWidth=1;shadow=0;labelBackgroundColor=none;edgeStyle=orthogonalEdgeStyle;exitX=1;exitY=0.5;exitDx=0;exitDy=0;entryX=1.002;entryY=0.652;entryDx=0;entryDy=0;entryPerimeter=0;" edge="1" parent="r5VO6Hn0INopbe_nGajh-10">
          <mxGeometry relative="1" as="geometry">
            <mxPoint x="160" y="220.28" as="sourcePoint" />
            <mxPoint x="190.38" y="220.00000000000003" as="targetPoint" />
          </mxGeometry>
        </mxCell>
        <mxCell id="r5VO6Hn0INopbe_nGajh-25" value="" style="rounded=0;html=1;jettySize=auto;orthogonalLoop=1;fontSize=11;endArrow=block;endFill=0;endSize=8;strokeWidth=1;shadow=0;labelBackgroundColor=none;edgeStyle=orthogonalEdgeStyle;exitX=0.995;exitY=0.776;exitDx=0;exitDy=0;exitPerimeter=0;entryX=1.002;entryY=0.838;entryDx=0;entryDy=0;entryPerimeter=0;" edge="1" parent="r5VO6Hn0INopbe_nGajh-10">
          <mxGeometry relative="1" as="geometry">
            <mxPoint x="189.05000000000007" y="280.35999999999996" as="sourcePoint" />
            <mxPoint x="160.24" y="249.51999999999998" as="targetPoint" />
            <Array as="points">
              <mxPoint x="180" y="280" />
              <mxPoint x="180" y="250" />
            </Array>
          </mxGeometry>
        </mxCell>
        <mxCell id="r5VO6Hn0INopbe_nGajh-12" value="func mean_variance_optimization" style="shape=umlFrame;whiteSpace=wrap;html=1;pointerEvents=0;recursiveResize=0;container=1;collapsible=0;width=170;height=30;" vertex="1" parent="r5VO6Hn0INopbe_nGajh-0">
          <mxGeometry x="460" y="50" width="180" height="360" as="geometry" />
        </mxCell>
        <mxCell id="r5VO6Hn0INopbe_nGajh-16" value="Array erstellen und Grenzen von 0 bis 1 festlegen" style="rounded=1;whiteSpace=wrap;html=1;fontSize=12;glass=0;strokeWidth=1;shadow=0;" vertex="1" parent="r5VO6Hn0INopbe_nGajh-12">
          <mxGeometry x="30" y="40" width="120" height="40" as="geometry" />
        </mxCell>
        <mxCell id="r5VO6Hn0INopbe_nGajh-17" value="" style="rounded=0;html=1;jettySize=auto;orthogonalLoop=1;fontSize=11;endArrow=block;endFill=0;endSize=8;strokeWidth=1;shadow=0;labelBackgroundColor=none;edgeStyle=orthogonalEdgeStyle;" edge="1" parent="r5VO6Hn0INopbe_nGajh-12">
          <mxGeometry relative="1" as="geometry">
            <mxPoint x="89.75999999999999" y="80" as="sourcePoint" />
            <mxPoint x="89.75999999999999" y="130" as="targetPoint" />
          </mxGeometry>
        </mxCell>
        <mxCell id="r5VO6Hn0INopbe_nGajh-19" value="" style="rounded=0;html=1;jettySize=auto;orthogonalLoop=1;fontSize=11;endArrow=block;endFill=0;endSize=8;strokeWidth=1;shadow=0;labelBackgroundColor=none;edgeStyle=orthogonalEdgeStyle;exitX=1;exitY=0.5;exitDx=0;exitDy=0;entryX=1.002;entryY=0.652;entryDx=0;entryDy=0;entryPerimeter=0;" edge="1" parent="r5VO6Hn0INopbe_nGajh-12">
          <mxGeometry relative="1" as="geometry">
            <mxPoint y="59.83000000000001" as="sourcePoint" />
            <mxPoint x="30" y="59.83000000000001" as="targetPoint" />
          </mxGeometry>
        </mxCell>
        <mxCell id="r5VO6Hn0INopbe_nGajh-20" value="Minimieren der negativen Sharpe-Ratio" style="rounded=1;whiteSpace=wrap;html=1;fontSize=12;glass=0;strokeWidth=1;shadow=0;" vertex="1" parent="r5VO6Hn0INopbe_nGajh-12">
          <mxGeometry x="30" y="130" width="120" height="40" as="geometry" />
        </mxCell>
        <mxCell id="r5VO6Hn0INopbe_nGajh-21" value="" style="rounded=0;html=1;jettySize=auto;orthogonalLoop=1;fontSize=11;endArrow=block;endFill=0;endSize=8;strokeWidth=1;shadow=0;labelBackgroundColor=none;edgeStyle=orthogonalEdgeStyle;entryX=-0.002;entryY=0.778;entryDx=0;entryDy=0;entryPerimeter=0;" edge="1" parent="r5VO6Hn0INopbe_nGajh-12" target="r5VO6Hn0INopbe_nGajh-12">
          <mxGeometry relative="1" as="geometry">
            <mxPoint x="89.75999999999999" y="170" as="sourcePoint" />
            <mxPoint x="3" y="280" as="targetPoint" />
            <Array as="points">
              <mxPoint x="90" y="280" />
            </Array>
          </mxGeometry>
        </mxCell>
        <mxCell id="r5VO6Hn0INopbe_nGajh-15" value="" style="rounded=0;html=1;jettySize=auto;orthogonalLoop=1;fontSize=11;endArrow=block;endFill=0;endSize=8;strokeWidth=1;shadow=0;labelBackgroundColor=none;edgeStyle=orthogonalEdgeStyle;exitX=1;exitY=0.611;exitDx=0;exitDy=0;exitPerimeter=0;" edge="1" parent="r5VO6Hn0INopbe_nGajh-0" source="r5VO6Hn0INopbe_nGajh-22">
          <mxGeometry relative="1" as="geometry">
            <mxPoint x="190" y="375" as="sourcePoint" />
            <mxPoint x="460" y="110" as="targetPoint" />
            <Array as="points">
              <mxPoint x="410" y="270" />
              <mxPoint x="410" y="109" />
              <mxPoint x="460" y="109" />
            </Array>
          </mxGeometry>
        </mxCell>
        <mxCell id="r5VO6Hn0INopbe_nGajh-23" value="" style="rounded=0;html=1;jettySize=auto;orthogonalLoop=1;fontSize=11;endArrow=block;endFill=0;endSize=8;strokeWidth=1;shadow=0;labelBackgroundColor=none;edgeStyle=orthogonalEdgeStyle;entryX=0.997;entryY=0.775;entryDx=0;entryDy=0;entryPerimeter=0;" edge="1" parent="r5VO6Hn0INopbe_nGajh-0" target="r5VO6Hn0INopbe_nGajh-10">
          <mxGeometry relative="1" as="geometry">
            <mxPoint x="460" y="330" as="sourcePoint" />
            <mxPoint x="285.09000000000003" y="440" as="targetPoint" />
            <Array as="points">
              <mxPoint x="219" y="330" />
            </Array>
          </mxGeometry>
        </mxCell>
        <mxCell id="r5VO6Hn0INopbe_nGajh-24" value="" style="rounded=0;html=1;jettySize=auto;orthogonalLoop=1;fontSize=11;endArrow=block;endFill=0;endSize=8;strokeWidth=1;shadow=0;labelBackgroundColor=none;edgeStyle=orthogonalEdgeStyle;exitX=1;exitY=0.611;exitDx=0;exitDy=0;exitPerimeter=0;" edge="1" parent="r5VO6Hn0INopbe_nGajh-0" source="r5VO6Hn0INopbe_nGajh-10" target="r5VO6Hn0INopbe_nGajh-22">
          <mxGeometry relative="1" as="geometry">
            <mxPoint x="310" y="300" as="sourcePoint" />
            <mxPoint x="550" y="140" as="targetPoint" />
            <Array as="points" />
          </mxGeometry>
        </mxCell>
        <mxCell id="r5VO6Hn0INopbe_nGajh-22" value="Eingabedaten:&amp;nbsp;&lt;div&gt;expected_returns, covariance_matrix&lt;div&gt;&lt;span style=&quot;color: rgba(0, 0, 0, 0); font-family: monospace; font-size: 0px; text-align: start; text-wrap: nowrap;&quot;&gt;%3CmxGraphModel%3E%3Croot%3E%3CmxCell%20id%3D%220%22%2F%3E%3CmxCell%20id%3D%221%22%20parent%3D%220%22%2F%3E%3CmxCell%20id%3D%222%22%20value%3D%22Eingabedaten%3A%26lt%3Bdiv%26gt%3Bpredictions%2C%20historical_data%20und%20initial_capital%26lt%3B%2Fdiv%26gt%3B%22%20style%3D%22rounded%3D1%3BwhiteSpace%3Dwrap%3Bhtml%3D1%3BfontSize%3D12%3Bglass%3D0%3BstrokeWidth%3D1%3Bshadow%3D0%3B%22%20vertex%3D%221%22%20parent%3D%221%22%3E%3CmxGeometry%20x%3D%22360%22%20y%3D%22100%22%20width%3D%22120%22%20height%3D%2270%22%20as%3D%22geometry%22%2F%3E%3C%2FmxCell%3E%3C%2Froot%3E%3C%2FmxGraphModel%3E&lt;/span&gt;&lt;br&gt;&lt;/div&gt;&lt;/div&gt;" style="rounded=1;whiteSpace=wrap;html=1;fontSize=12;glass=0;strokeWidth=1;shadow=0;" vertex="1" parent="r5VO6Hn0INopbe_nGajh-0">
          <mxGeometry x="264" y="235" width="120" height="70" as="geometry" />
        </mxCell>
      </root>
    </mxGraphModel>
  </diagram>
</mxfile>
